<?xml version="1.0" standalone="no"?>
<!DOCTYPE svg PUBLIC "-//W3C//DTD SVG 20010904//EN"
 "http://www.w3.org/TR/2001/REC-SVG-20010904/DTD/svg10.dtd">
<svg version="1.0" xmlns="http://www.w3.org/2000/svg"
 width="156.000000pt" height="148.000000pt" viewBox="0 0 156.000000 148.000000"
 preserveAspectRatio="xMidYMid meet">

<g transform="translate(0.000000,148.000000) scale(0.100000,-0.100000)"
fill="#000000" stroke="none">
<path d="M7 983 c-4 -3 -7 -55 -7 -114 0 -127 -10 -116 147 -174 l103 -38 2
-191 3 -191 380 -3 380 -2 218 315 218 315 48 0 c36 0 51 4 55 16 12 31 -13
44 -87 44 l-70 0 -177 -110 c-97 -60 -179 -110 -182 -110 -3 0 -8 13 -11 30
l-6 30 -168 2 -168 3 0 30 c0 29 1 30 60 35 l60 5 0 55 0 55 -150 0 -150 0 0
-55 0 -55 60 -5 c59 -5 60 -6 60 -35 l0 -30 -162 -3 -162 -2 -33 62 -33 62
-100 33 c-104 34 -117 37 -128 26z m148 -95 c32 -12 46 -25 68 -66 16 -29 27
-63 25 -76 l-3 -23 -92 35 -93 35 0 63 0 63 28 -9 c15 -4 45 -15 67 -22z"/>
<path d="M1466 609 c-30 -69 -33 -111 -10 -134 25 -25 75 -16 93 17 14 24 13
31 -14 98 -16 39 -32 73 -36 75 -3 3 -18 -23 -33 -56z"/>
</g>
</svg>
