<?xml version="1.0" standalone="no"?>
<!DOCTYPE svg PUBLIC "-//W3C//DTD SVG 20010904//EN"
 "http://www.w3.org/TR/2001/REC-SVG-20010904/DTD/svg10.dtd">
<svg version="1.0" xmlns="http://www.w3.org/2000/svg"
 width="225.000000pt" height="225.000000pt" viewBox="0 0 225.000000 225.000000"
 preserveAspectRatio="xMidYMid meet">

<g transform="translate(0.000000,225.000000) scale(0.100000,-0.100000)"
fill="#000000" stroke="none">
<path d="M1132 2149 c-26 -8 -33 -15 -30 -31 2 -16 17 -24 68 -38 97 -25 279
-105 354 -155 37 -25 70 -45 75 -45 18 0 17 26 -1 62 -30 57 -178 145 -323
191 -73 23 -106 27 -143 16z"/>
<path d="M1074 2019 c-14 -28 -24 -53 -22 -55 2 -2 16 21 31 51 15 30 25 55
22 55 -3 0 -16 -23 -31 -51z"/>
<path d="M1126 2062 c8 -5 -26 -79 -104 -229 -64 -122 -118 -221 -119 -219 -2
1 31 76 72 166 42 89 74 164 72 166 -4 5 -227 -479 -227 -492 0 -5 25 -49 55
-99 53 -86 66 -127 45 -140 -21 -13 -8 -26 46 -50 31 -14 58 -25 60 -25 3 0 9
11 14 25 12 31 31 39 148 55 75 11 96 17 107 34 28 43 275 601 271 611 -12 31
-222 137 -356 180 -84 26 -103 30 -84 17z"/>
<path d="M905 1134 c-8 -20 -15 -42 -15 -48 0 -6 -9 -26 -21 -45 -15 -25 -23
-31 -32 -22 -27 27 -32 9 -32 -104 0 -107 4 -130 20 -105 3 6 26 10 51 10 l44
0 0 -140 c0 -127 -2 -142 -20 -160 -11 -11 -28 -20 -37 -20 -15 0 -16 -2 -3
-10 16 -11 57 -14 47 -4 -3 4 5 15 18 26 24 19 25 23 25 145 0 121 1 125 18
110 13 -12 21 -14 29 -6 8 8 14 5 22 -9 8 -14 23 -22 49 -24 l37 -3 24 -113
c17 -78 21 -116 14 -123 -5 -5 -37 -17 -69 -26 -90 -23 -98 -32 -27 -33 l61 0
18 -81 c14 -64 22 -82 38 -89 23 -8 25 -18 4 -31 -10 -7 -8 -9 7 -10 l20 0
-20 -9 -20 -9 20 -1 20 -1 -20 -8 c-15 -6 -4 -10 40 -16 33 -4 64 -13 70 -22
9 -12 18 -13 53 -4 23 7 42 14 42 17 0 3 -22 96 -50 208 -27 112 -50 221 -50
243 0 49 20 70 87 88 26 7 40 14 31 14 -22 1 -23 17 -2 25 11 4 14 17 12 43
l-3 38 -83 3 c-60 2 -88 7 -102 20 -26 22 -25 35 1 27 13 -5 25 -2 31 6 7 11
11 11 15 2 2 -7 20 -13 39 -13 34 0 34 0 34 45 0 45 0 45 -34 45 -19 0 -37 -6
-40 -12 -5 -10 -7 -10 -12 0 -4 8 -30 12 -80 12 -42 0 -84 5 -95 10 -24 13
-26 72 -3 94 29 29 74 13 74 -26 0 -10 5 -18 10 -18 17 0 11 56 -7 72 -10 8
-37 22 -59 31 -49 19 -73 8 -94 -43 -7 -16 -16 -30 -21 -30 -12 0 -11 11 6 40
20 35 19 37 -25 60 l-40 20 -15 -36z m151 -45 c10 -17 -13 -36 -27 -22 -12 12
-4 33 11 33 5 0 12 -5 16 -11z m19 -259 c-25 -4 -30 -10 -30 -35 0 -21 7 -33
25 -42 23 -12 23 -13 4 -13 -31 0 -58 34 -50 65 7 27 41 46 66 36 10 -3 5 -7
-15 -11z m25 -34 c0 -20 -19 -31 -32 -18 -6 6 -7 15 -4 21 10 16 36 13 36 -3z"/>
<path d="M726 1023 c-4 -5 -25 -12 -47 -18 -49 -12 -51 -27 -7 -40 31 -9 33
-12 32 -55 0 -40 -3 -45 -25 -48 -53 -8 -46 -41 9 -42 12 0 31 -6 42 -12 15
-10 22 -10 32 0 17 17 23 158 9 195 -10 26 -30 35 -45 20z"/>
<path d="M1420 785 c0 -33 4 -45 13 -42 7 2 12 20 12 42 0 22 -5 40 -12 43 -9
2 -13 -10 -13 -43z"/>
<path d="M1324 133 c-16 -3 -20 -9 -17 -24 6 -21 24 -24 53 -9 11 6 17 17 14
25 -6 15 -11 16 -50 8z"/>
</g>
</svg>
