<?xml version="1.0" standalone="no"?>
<!DOCTYPE svg PUBLIC "-//W3C//DTD SVG 20010904//EN"
 "http://www.w3.org/TR/2001/REC-SVG-20010904/DTD/svg10.dtd">
<svg version="1.0" xmlns="http://www.w3.org/2000/svg"
 width="225.000000pt" height="225.000000pt" viewBox="0 0 225.000000 225.000000"
 preserveAspectRatio="xMidYMid meet">

<g transform="translate(0.000000,225.000000) scale(0.100000,-0.100000)"
fill="#000000" stroke="none">
<path d="M1680 2239 c-73 -14 -180 -73 -237 -130 -100 -100 -151 -240 -138
-378 l6 -75 -359 -359 -359 -359 -69 7 c-293 29 -555 -233 -520 -519 14 -109
58 -115 157 -19 55 53 69 72 67 93 -5 44 -36 37 -100 -27 l-60 -58 5 75 c9
129 60 227 159 306 72 57 137 77 265 80 74 2 122 8 140 18 16 8 187 174 381
368 259 260 352 360 353 378 1 14 3 70 4 125 2 115 22 178 83 258 71 92 173
144 302 154 l75 5 -152 -154 c-84 -85 -153 -160 -153 -166 0 -33 64 -239 78
-254 15 -14 221 -78 254 -78 6 0 81 69 166 153 l154 152 -4 -83 c-4 -73 -10
-93 -46 -165 -23 -45 -42 -87 -42 -94 0 -6 10 -15 22 -19 27 -8 50 17 90 103
50 107 62 278 22 318 -37 36 -62 21 -223 -139 l-156 -155 -96 26 -95 27 -27
95 -26 96 155 156 c154 156 170 179 145 217 -18 29 -129 39 -221 21z"/>
<path d="M1305 1439 c-32 -18 -475 -461 -492 -493 -39 -73 38 -165 119 -141
27 9 483 458 504 497 23 44 17 77 -20 114 -36 36 -73 43 -111 23z m-140 -309
c-120 -121 -221 -217 -224 -214 -3 2 94 103 214 224 120 121 221 217 224 214
3 -2 -94 -103 -214 -224z"/>
<path d="M1930 1402 c-49 -24 -68 -27 -173 -29 -79 -2 -127 -8 -145 -17 -44
-24 -720 -708 -727 -736 -3 -14 -7 -74 -8 -135 -2 -100 -5 -116 -34 -177 -43
-92 -101 -151 -188 -194 -60 -30 -86 -37 -156 -41 l-84 -5 152 154 c84 84 153
161 153 171 0 21 -36 158 -56 214 -13 37 -21 44 -62 57 -63 20 -200 56 -212
56 -13 0 -98 -78 -111 -101 -6 -12 -4 -22 7 -33 22 -23 30 -21 77 23 l42 39
96 -25 97 -25 25 -97 25 -96 -154 -156 c-120 -121 -154 -161 -154 -181 0 -40
23 -56 93 -63 286 -31 541 227 512 519 l-7 69 360 359 359 360 69 -7 c86 -9
169 6 252 45 54 25 63 33 60 52 -4 33 -41 32 -108 0z"/>
</g>
</svg>
